<svg viewBox="0 0 564 506" xmlns="http://www.w3.org/2000/svg">
<polyline points="365,41 366,41 368,41 369,40 371,40 372,41 374,41 373,42 372,41 372,42 373,41 373,42 372,42 " fill="none" stroke="black" />
<polyline points="365,41 365,42 366,41 366,42 365,41 " fill="none" stroke="black" />
<polyline points="366,41 367,42 367,41 366,42 365,42 364,43 362,43 360,45 358,45 357,46 355,46 354,47 352,47 351,48 350,48 349,49 347,49 346,50 344,50 343,51 341,51 339,53 338,53 334,57 334,58 333,59 333,60 329,64 328,64 326,66 324,66 320,70 319,70 316,73 315,73 314,74 311,74 311,75 312,74 312,75 311,74 " fill="none" stroke="black" />
<polyline points="367,41 368,42 368,41 367,42 366,42 " fill="none" stroke="black" />
<polyline points="373,41 374,42 374,41 " fill="none" stroke="black" />
<polyline points="404,41 405,41 406,40 407,40 408,39 409,39 412,36 413,36 415,34 416,34 419,31 420,31 421,30 422,30 423,29 424,29 425,28 430,28 431,27 435,27 436,28 438,28 439,29 443,29 444,30 446,30 447,31 448,31 450,33 450,34 451,35 451,38 452,39 452,47 451,48 451,60 450,61 450,63 449,64 449,69 451,71 451,79 452,80 452,96 453,97 453,100 452,101 452,107 451,108 451,113 452,114 452,119 451,120 451,121 450,122 450,125 445,130 444,130 443,131 441,131 440,132 438,132 437,133 431,133 430,134 429,133 425,133 424,134 423,134 422,135 420,135 419,136 418,136 413,141 413,142 411,144 410,143 402,143 401,144 400,144 399,143 398,143 395,140 394,140 393,139 392,139 391,138 390,138 389,137 386,137 384,135 381,135 380,134 379,134 378,133 377,133 376,132 374,132 373,131 372,131 371,130 370,130 369,129 368,129 366,127 365,127 364,126 363,126 360,123 357,123 355,121 354,121 352,119 351,119 349,117 348,117 347,116 346,116 345,115 344,115 343,116 342,115 339,115 338,114 331,114 330,115 328,115 327,116 323,116 322,115 322,114 321,113 321,111 320,110 320,108 316,104 314,104 313,103 312,103 311,102 308,102 307,101 305,101 304,100 302,100 301,99 298,99 297,98 295,98 293,96 291,96 290,95 289,95 288,94 287,94 284,91 286,89 286,88 287,87 287,86 291,82 292,82 293,81 294,81 295,80 296,80 297,79 298,79 299,78 301,78 302,77 305,77 306,76 310,76 311,75 312,75 313,74 313,75 312,74 " fill="none" stroke="black" />
<polyline points="404,41 404,42 405,41 405,42 404,41 " fill="none" stroke="black" />
<polyline points="367,42 368,42 " fill="none" stroke="black" />
<polyline points="373,42 374,42 375,43 377,43 378,44 382,44 383,45 386,45 387,46 397,46 398,45 399,45 400,44 401,44 402,43 403,43 404,42 405,42 " fill="none" stroke="black" />
<polyline points="313,74 314,75 314,74 313,75 312,75 " fill="none" stroke="black" />
<polyline points="313,75 314,75 " fill="none" stroke="black" />
<polyline points="285,90 285,91 284,91 284,92 285,91 285,92 284,92 283,93 278,93 277,94 271,94 270,95 268,95 267,96 265,96 260,101 260,104 259,105 258,105 255,108 255,110 254,111 254,116 253,117 253,127 252,128 252,132 251,133 251,136 252,137 252,139 253,140 253,143 254,144 254,147 255,148 255,150 256,151 256,156 257,157 257,164 255,166 255,167 253,169 252,169 251,170 249,170 248,171 244,171 243,170 234,170 233,171 228,171 227,172 220,172 219,173 218,173 217,174 216,174 216,175 217,174 217,175 216,174 " fill="none" stroke="black" />
<polyline points="323,116 323,117 324,116 " fill="none" stroke="black" />
<polyline points="343,116 343,117 342,118 341,118 341,119 342,118 342,119 341,118 " fill="none" stroke="black" />
<polyline points="323,117 323,118 323,123 322,124 323,124 323,123 " fill="none" stroke="black" />
<polyline points="341,119 342,119 341,120 341,119 342,120 342,119 " fill="none" stroke="black" />
<polyline points="341,120 342,120 341,121 341,120 342,121 342,120 " fill="none" stroke="black" />
<polyline points="341,121 342,121 341,122 341,121 342,122 342,121 " fill="none" stroke="black" />
<polyline points="341,122 342,122 341,123 341,122 342,123 342,122 " fill="none" stroke="black" />
<polyline points="341,123 342,123 341,124 341,123 342,124 342,123 " fill="none" stroke="black" />
<polyline points="322,124 322,125 323,124 323,125 322,124 " fill="none" stroke="black" />
<polyline points="341,124 342,124 341,125 341,124 342,125 342,124 " fill="none" stroke="black" />
<polyline points="361,124 362,124 361,125 361,124 " fill="none" stroke="black" />
<polyline points="362,124 362,125 361,125 " fill="none" stroke="black" />
<polyline points="322,125 323,125 325,127 326,127 325,128 325,127 326,128 326,127 " fill="none" stroke="black" />
<polyline points="322,125 321,126 320,127 320,128 319,129 319,130 318,131 318,133 317,134 317,135 316,136 316,138 315,139 315,142 314,143 314,145 313,146 313,151 314,152 314,155 315,156 315,159 316,160 316,163 317,164 317,165 321,169 322,168 322,167 323,166 323,157 324,156 324,155 325,154 326,154 328,152 329,152 330,151 330,150 331,149 329,147 329,145 328,144 328,141 327,140 327,133 328,132 327,131 327,129 326,128 325,128 " fill="none" stroke="black" />
<polyline points="341,125 342,125 341,126 341,125 342,126 342,125 " fill="none" stroke="black" />
<polyline points="341,126 342,126 " fill="none" stroke="black" />
<polyline points="341,126 340,127 339,128 " fill="none" stroke="black" />
<polyline points="337,135 337,136 337,138 339,140 339,143 336,146 335,146 334,147 333,147 331,149 " fill="none" stroke="black" />
<polyline points="396,141 397,141 396,142 396,141 " fill="none" stroke="black" />
<polyline points="397,141 397,142 396,142 " fill="none" stroke="black" />
<polyline points="400,144 400,145 401,144 " fill="none" stroke="black" />
<polyline points="411,144 411,145 411,149 410,150 410,155 409,156 403,156 401,154 401,150 400,149 400,145 " fill="none" stroke="black" />
<polyline points="330,151 330,152 329,152 " fill="none" stroke="black" />
<polyline points="330,152 331,153 332,154 332,156 333,157 333,160 334,161 334,164 335,165 335,166 336,167 336,168 338,170 348,170 349,169 352,169 353,168 354,169 363,169 366,166 369,166 370,165 371,165 373,163 376,163 377,162 379,162 " fill="none" stroke="black" />
<polyline points="403,156 403,157 404,156 " fill="none" stroke="black" />
<polyline points="409,156 410,157 410,161 409,162 408,162 407,163 405,161 403,161 402,160 402,158 403,157 " fill="none" stroke="black" />
<polyline points="402,160 401,161 398,161 397,162 391,162 390,161 385,161 " fill="none" stroke="black" />
<polyline points="407,163 408,164 409,164 408,165 408,164 409,165 409,164 " fill="none" stroke="black" />
<polyline points="408,165 409,165 " fill="none" stroke="black" />
<polyline points="408,165 407,166 406,167 406,168 405,169 405,172 404,173 404,176 403,177 403,180 404,181 404,182 405,183 406,182 416,182 417,181 418,181 420,179 422,179 425,176 426,176 427,175 427,174 429,172 430,172 433,169 438,169 440,171 440,172 442,174 443,174 442,175 442,174 443,175 443,174 " fill="none" stroke="black" />
<polyline points="321,169 321,170 322,171 322,172 324,174 324,175 325,176 334,176 335,175 335,174 336,173 336,172 338,170 " fill="none" stroke="black" />
<polyline points="216,175 217,175 " fill="none" stroke="black" />
<polyline points="216,175 215,176 213,178 212,178 209,181 207,181 205,183 204,183 201,186 200,186 198,188 190,188 189,187 187,187 185,185 178,185 177,186 176,186 175,187 173,187 172,188 171,188 170,189 169,189 168,190 166,190 165,191 163,191 163,192 164,191 164,192 163,191 " fill="none" stroke="black" />
<polyline points="335,175 335,176 334,176 " fill="none" stroke="black" />
<polyline points="442,175 443,175 442,176 442,175 443,176 443,175 " fill="none" stroke="black" />
<polyline points="335,176 336,177 338,179 339,179 340,180 340,181 341,182 342,182 341,183 341,182 342,183 342,182 " fill="none" stroke="black" />
<polyline points="442,176 443,176 446,179 446,180 448,182 448,184 449,185 449,186 450,187 450,188 453,191 455,191 454,192 453,191 453,192 454,191 454,192 453,192 " fill="none" stroke="black" />
<polyline points="341,183 342,183 343,184 343,194 342,195 341,195 341,196 342,195 342,196 341,195 " fill="none" stroke="black" />
<polyline points="405,183 404,184 404,194 405,195 405,196 406,197 406,198 408,200 409,200 410,201 410,202 411,203 411,204 412,205 412,206 413,207 413,211 414,212 414,219 415,220 415,222 414,223 414,225 413,226 413,233 414,234 414,240 413,241 413,244 414,245 414,249 413,250 413,260 414,261 414,262 418,266 419,266 420,267 421,267 425,271 426,271 428,273 429,273 430,274 434,274 435,275 441,275 442,274 444,274 449,269 449,268 451,266 449,264 449,263 447,261 447,258 452,253 452,249 451,248 451,245 449,243 449,241 448,240 448,239 447,238 447,237 445,235 445,231 444,230 444,227 445,226 445,221 446,220 446,218 447,217 447,216 450,213 450,212 452,210 452,208 453,207 453,206 454,205 454,202 455,201 455,200 456,199 456,196 457,195 457,194 454,191 " fill="none" stroke="black" />
<polyline points="164,191 165,192 165,191 164,192 163,192 162,193 157,193 156,194 154,194 153,195 151,195 150,196 147,196 146,197 144,197 142,199 141,199 138,196 137,196 136,195 134,195 133,194 123,194 122,195 119,195 118,196 113,196 112,197 108,197 107,198 103,198 102,199 97,199 96,200 91,200 90,201 89,201 88,202 87,202 86,203 83,203 82,204 78,204 77,205 74,205 73,206 72,206 71,207 70,207 69,208 68,208 68,209 69,208 69,209 68,208 " fill="none" stroke="black" />
<polyline points="455,191 455,192 454,192 " fill="none" stroke="black" />
<polyline points="164,192 165,192 " fill="none" stroke="black" />
<polyline points="457,194 458,194 459,194 461,192 461,191 462,190 465,190 466,189 470,189 471,188 482,188 483,187 490,187 491,188 493,188 494,189 496,189 497,190 500,190 501,191 501,192 503,194 503,195 504,196 504,204 505,205 505,207 504,208 504,210 503,211 503,215 502,216 502,222 501,223 501,225 500,226 500,228 501,229 501,230 502,231 502,232 503,233 503,234 504,235 504,238 505,239 505,240 506,241 506,242 507,243 509,243 516,250 516,255 517,256 517,257 518,258 518,265 519,266 519,269 520,269 519,268 " fill="none" stroke="black" />
<polyline points="458,194 457,195 " fill="none" stroke="black" />
<polyline points="341,196 342,196 341,197 341,196 342,197 342,196 " fill="none" stroke="black" />
<polyline points="341,197 342,197 341,198 341,197 342,198 342,197 " fill="none" stroke="black" />
<polyline points="341,198 342,198 341,199 341,198 342,199 342,198 " fill="none" stroke="black" />
<polyline points="141,199 141,200 142,199 142,200 141,199 " fill="none" stroke="black" />
<polyline points="341,199 342,199 341,200 341,199 342,200 342,199 " fill="none" stroke="black" />
<polyline points="141,200 142,200 141,201 141,200 142,201 142,200 " fill="none" stroke="black" />
<polyline points="341,200 342,200 341,201 341,200 342,201 342,200 " fill="none" stroke="black" />
<polyline points="141,201 142,201 141,202 141,201 142,202 142,201 " fill="none" stroke="black" />
<polyline points="341,201 342,201 341,202 341,201 342,202 342,201 " fill="none" stroke="black" />
<polyline points="141,202 142,202 141,203 141,202 142,203 142,202 " fill="none" stroke="black" />
<polyline points="341,202 342,202 341,203 341,202 342,203 342,202 " fill="none" stroke="black" />
<polyline points="141,203 142,203 141,204 141,203 142,204 142,203 " fill="none" stroke="black" />
<polyline points="341,203 342,203 341,204 341,203 342,204 342,203 " fill="none" stroke="black" />
<polyline points="141,204 142,204 141,205 141,204 142,205 142,204 " fill="none" stroke="black" />
<polyline points="341,204 342,204 341,205 341,204 342,205 342,204 " fill="none" stroke="black" />
<polyline points="141,205 142,205 141,206 141,205 142,206 142,205 " fill="none" stroke="black" />
<polyline points="341,205 342,205 341,206 341,205 342,206 342,205 " fill="none" stroke="black" />
<polyline points="141,206 142,206 143,207 143,209 142,210 141,210 141,211 142,210 142,211 141,210 " fill="none" stroke="black" />
<polyline points="341,206 342,206 341,207 341,206 342,207 342,206 " fill="none" stroke="black" />
<polyline points="341,207 342,207 341,208 341,207 342,208 342,207 " fill="none" stroke="black" />
<polyline points="341,208 342,208 341,209 341,208 342,209 342,208 " fill="none" stroke="black" />
<polyline points="68,209 69,209 " fill="none" stroke="black" />
<polyline points="68,209 67,210 66,210 65,211 64,211 63,212 62,212 61,213 60,213 59,214 57,214 52,219 51,219 49,221 48,221 46,223 45,223 44,224 43,224 43,225 44,224 44,225 43,224 " fill="none" stroke="black" />
<polyline points="341,209 342,209 341,210 341,209 342,210 342,209 " fill="none" stroke="black" />
<polyline points="341,210 342,210 341,211 341,210 342,211 342,210 " fill="none" stroke="black" />
<polyline points="141,211 142,211 141,212 141,211 142,212 142,211 " fill="none" stroke="black" />
<polyline points="341,211 342,211 341,212 341,211 342,212 342,211 " fill="none" stroke="black" />
<polyline points="141,212 142,212 141,213 141,212 142,213 142,212 " fill="none" stroke="black" />
<polyline points="341,212 342,212 341,213 341,212 342,213 342,212 " fill="none" stroke="black" />
<polyline points="141,213 142,213 141,214 141,213 142,214 142,213 " fill="none" stroke="black" />
<polyline points="341,213 342,213 341,214 341,213 342,214 342,213 " fill="none" stroke="black" />
<polyline points="141,214 142,214 141,215 141,214 142,215 142,214 " fill="none" stroke="black" />
<polyline points="341,214 342,214 341,215 341,214 342,215 342,214 " fill="none" stroke="black" />
<polyline points="141,215 142,215 143,216 143,218 144,219 144,220 145,221 145,222 147,224 147,226 148,227 148,229 149,230 149,237 150,238 150,242 151,243 151,249 152,250 152,255 153,256 153,257 154,258 154,260 155,261 155,262 157,264 157,265 158,266 159,266 158,267 158,266 159,267 159,266 " fill="none" stroke="black" />
<polyline points="341,215 342,215 341,216 341,215 342,216 342,215 " fill="none" stroke="black" />
<polyline points="341,216 342,216 341,217 341,216 342,217 342,216 " fill="none" stroke="black" />
<polyline points="341,217 342,217 341,218 341,217 342,218 342,217 " fill="none" stroke="black" />
<polyline points="341,218 342,218 341,219 341,218 342,219 342,218 " fill="none" stroke="black" />
<polyline points="341,219 342,219 341,220 341,219 342,220 342,219 " fill="none" stroke="black" />
<polyline points="341,220 342,220 341,221 341,220 342,221 342,220 " fill="none" stroke="black" />
<polyline points="341,221 342,221 341,222 341,221 342,222 342,221 " fill="none" stroke="black" />
<polyline points="341,222 342,222 343,223 343,230 344,231 344,260 345,261 345,263 346,264 346,265 348,267 348,268 350,270 350,271 354,275 354,277 356,279 356,280 357,281 357,282 358,283 359,283 358,284 358,283 359,284 359,283 " fill="none" stroke="black" />
<polyline points="43,225 44,225 " fill="none" stroke="black" />
<polyline points="43,225 42,226 40,226 39,227 38,227 37,228 34,228 33,229 32,229 30,231 30,232 28,234 28,235 26,237 26,238 25,239 24,239 22,241 22,242 21,243 21,245 20,246 20,247 19,248 19,257 20,258 20,261 21,262 21,267 23,269 23,271 24,272 25,272 24,273 24,272 25,273 25,272 " fill="none" stroke="black" />
<polyline points="452,253 453,254 453,255 454,256 454,261 453,262 453,264 451,266 " fill="none" stroke="black" />
<polyline points="158,267 159,267 161,269 161,270 162,271 162,273 164,275 164,277 167,280 167,288 168,289 167,290 167,295 166,296 166,301 169,304 175,304 176,305 179,305 180,306 184,306 186,304 187,304 188,303 189,303 190,304 192,304 193,305 193,306 194,307 193,308 193,310 192,311 191,311 189,313 188,313 185,310 185,308 183,306 " fill="none" stroke="black" />
<polyline points="519,269 518,270 518,271 517,272 517,273 515,275 515,276 514,277 512,277 511,278 511,279 509,281 508,281 504,285 503,285 502,286 501,286 500,287 497,287 495,285 494,285 493,284 491,284 490,283 475,283 474,284 465,284 463,286 463,287 461,289 461,290 460,291 460,294 459,295 458,295 458,296 459,295 459,296 458,295 " fill="none" stroke="black" />
<polyline points="520,269 521,269 522,270 526,270 527,271 529,271 530,272 531,272 532,273 535,273 536,274 538,274 539,275 539,276 540,277 543,277 544,278 545,278 548,281 551,281 552,282 553,282 " fill="none" stroke="black" />
<polyline points="24,273 25,273 24,274 24,273 25,274 25,273 " fill="none" stroke="black" />
<polyline points="428,273 427,274 426,275 424,275 424,276 425,275 425,276 424,275 " fill="none" stroke="black" />
<polyline points="24,274 25,274 26,275 26,277 27,278 27,282 26,283 26,287 27,288 27,295 28,296 28,297 39,308 39,310 40,311 40,312 41,313 42,313 43,314 43,315 45,317 45,319 47,321 47,322 48,323 48,324 49,325 49,326 50,327 50,328 51,329 51,330 52,331 52,334 53,335 53,336 54,337 54,340 55,341 55,345 56,346 56,349 57,350 57,351 58,352 59,352 58,353 58,352 59,353 59,352 " fill="none" stroke="black" />
<polyline points="425,275 426,276 426,275 425,276 424,276 422,278 421,278 420,279 419,279 418,280 418,281 416,283 416,288 415,289 415,294 416,295 416,304 415,305 415,309 414,310 413,310 411,308 412,308 411,309 411,308 " fill="none" stroke="black" />
<polyline points="435,275 435,276 436,275 436,276 435,275 " fill="none" stroke="black" />
<polyline points="436,275 437,276 437,275 436,276 435,276 " fill="none" stroke="black" />
<polyline points="437,275 438,276 438,275 437,276 436,276 " fill="none" stroke="black" />
<polyline points="438,275 439,276 439,275 438,276 437,276 " fill="none" stroke="black" />
<polyline points="439,275 440,276 440,275 439,276 438,276 " fill="none" stroke="black" />
<polyline points="440,275 441,276 441,275 440,276 439,276 " fill="none" stroke="black" />
<polyline points="424,276 425,277 425,276 426,276 425,277 426,277 425,276 " fill="none" stroke="black" />
<polyline points="426,276 426,277 " fill="none" stroke="black" />
<polyline points="440,276 441,276 " fill="none" stroke="black" />
<polyline points="358,284 359,284 358,285 358,284 359,285 359,284 " fill="none" stroke="black" />
<polyline points="358,285 359,285 360,286 360,287 361,288 361,289 362,290 362,292 363,293 363,294 365,296 365,297 375,307 376,307 377,308 378,308 377,309 377,308 378,309 378,308 " fill="none" stroke="black" />
<polyline points="458,296 459,296 458,297 458,296 459,297 459,296 " fill="none" stroke="black" />
<polyline points="458,297 459,297 " fill="none" stroke="black" />
<polyline points="458,297 457,298 450,305 449,305 448,306 445,306 444,307 439,307 438,308 437,308 437,309 438,308 438,309 437,308 " fill="none" stroke="black" />
<polyline points="184,306 184,307 " fill="none" stroke="black" />
<polyline points="381,308 382,308 383,308 385,306 387,306 388,305 398,305 399,306 400,306 401,307 405,307 406,308 409,308 408,309 407,308 406,309 406,308 407,309 407,308 " fill="none" stroke="black" />
<polyline points="381,308 381,309 382,308 382,309 381,308 " fill="none" stroke="black" />
<polyline points="382,308 383,309 383,308 382,309 381,309 380,310 379,310 378,309 377,309 " fill="none" stroke="black" />
<polyline points="408,308 407,309 406,309 " fill="none" stroke="black" />
<polyline points="408,308 408,309 407,309 " fill="none" stroke="black" />
<polyline points="408,308 409,309 409,308 " fill="none" stroke="black" />
<polyline points="412,308 412,309 411,309 410,310 409,309 408,309 " fill="none" stroke="black" />
<polyline points="382,309 383,309 " fill="none" stroke="black" />
<polyline points="415,309 416,310 417,311 420,311 421,310 436,310 437,309 438,309 " fill="none" stroke="black" />
<polyline points="379,310 379,311 380,310 " fill="none" stroke="black" />
<polyline points="379,311 379,312 379,317 378,318 378,319 379,320 379,322 378,323 378,327 377,328 377,349 376,350 375,350 375,351 376,350 376,351 375,350 " fill="none" stroke="black" />
<polyline points="188,313 189,314 189,313 " fill="none" stroke="black" />
<polyline points="189,314 189,315 189,317 190,318 190,319 191,320 192,320 191,321 191,320 192,321 192,320 " fill="none" stroke="black" />
<polyline points="191,321 192,321 193,322 193,323 194,323 193,322 " fill="none" stroke="black" />
<polyline points="193,323 192,324 191,324 191,325 192,324 192,325 191,324 " fill="none" stroke="black" />
<polyline points="194,323 195,323 196,323 197,324 198,324 199,325 199,326 202,329 202,330 204,332 " fill="none" stroke="black" />
<polyline points="395,324 395,325 395,327 394,328 394,330 393,331 392,331 391,332 391,335 390,336 390,337 389,338 389,340 " fill="none" stroke="black" />
<polyline points="191,325 192,325 191,326 191,325 192,326 192,325 " fill="none" stroke="black" />
<polyline points="191,326 192,326 191,327 191,326 192,327 192,326 " fill="none" stroke="black" />
<polyline points="191,327 192,327 191,328 191,327 192,328 192,327 " fill="none" stroke="black" />
<polyline points="191,328 192,328 191,329 191,328 192,329 192,328 " fill="none" stroke="black" />
<polyline points="191,329 192,329 191,330 191,329 192,330 192,329 " fill="none" stroke="black" />
<polyline points="191,330 192,330 191,331 191,330 192,331 192,330 " fill="none" stroke="black" />
<polyline points="191,331 192,331 191,332 191,331 192,332 192,331 " fill="none" stroke="black" />
<polyline points="191,332 192,332 191,333 191,332 192,333 192,332 " fill="none" stroke="black" />
<polyline points="191,333 192,333 193,334 192,335 191,335 191,336 192,335 192,336 191,335 " fill="none" stroke="black" />
<polyline points="67,335 67,336 67,340 68,341 68,348 69,349 69,353 " fill="none" stroke="black" />
<polyline points="191,336 192,336 193,337 193,344 195,346 195,348 197,350 197,351 196,352 196,353 195,354 195,357 194,358 194,360 193,361 193,362 192,363 191,363 189,365 187,365 185,367 184,367 182,369 181,369 180,370 177,370 176,371 171,371 170,372 168,372 167,373 166,373 164,375 164,376 163,377 160,377 159,378 158,378 157,379 156,379 153,382 152,382 151,383 150,383 148,385 148,386 147,387 147,388 146,389 146,390 145,391 145,396 144,397 144,400 145,401 145,403 143,405 141,405 139,407 139,410 141,412 142,412 144,414 147,414 148,413 149,413 150,412 149,411 149,410 148,409 148,408 144,404 " fill="none" stroke="black" />
<polyline points="428,341 429,341 430,340 431,340 432,339 433,339 434,338 435,338 436,337 445,337 446,338 451,338 452,339 456,339 458,341 460,341 459,342 458,341 458,342 459,341 459,342 458,342 " fill="none" stroke="black" />
<polyline points="428,341 428,342 429,341 429,342 428,341 " fill="none" stroke="black" />
<polyline points="459,341 460,342 460,341 " fill="none" stroke="black" />
<polyline points="428,342 429,342 " fill="none" stroke="black" />
<polyline points="428,342 427,343 424,343 423,344 420,344 419,345 413,345 412,346 410,346 409,347 408,347 407,348 406,348 405,349 404,349 395,358 394,358 394,359 395,358 395,359 394,358 " fill="none" stroke="black" />
<polyline points="459,342 460,342 461,343 462,343 465,346 465,347 466,348 466,365 465,366 466,367 466,398 465,399 465,400 466,401 466,406 465,407 465,411 466,412 466,414 " fill="none" stroke="black" />
<polyline points="197,351 198,352 199,352 200,353 201,353 204,356 204,357 205,358 205,359 207,361 207,363 208,364 209,364 208,365 208,364 209,365 209,364 " fill="none" stroke="black" />
<polyline points="375,351 376,351 375,352 375,351 376,352 376,351 " fill="none" stroke="black" />
<polyline points="375,352 376,352 377,353 377,357 376,358 375,358 375,359 376,358 376,359 375,358 " fill="none" stroke="black" />
<polyline points="58,353 59,353 58,354 58,353 59,354 59,353 " fill="none" stroke="black" />
<polyline points="58,354 59,354 58,355 58,354 59,355 59,354 " fill="none" stroke="black" />
<polyline points="58,355 59,355 60,356 60,361 61,362 61,365 62,366 62,371 63,372 68,372 69,373 70,373 71,372 71,363 70,362 70,358 " fill="none" stroke="black" />
<polyline points="375,359 376,359 377,360 377,365 378,366 377,367 377,368 376,369 375,369 375,370 376,369 376,370 375,369 " fill="none" stroke="black" />
<polyline points="394,359 395,359 " fill="none" stroke="black" />
<polyline points="394,359 393,360 392,360 391,361 389,361 388,362 387,362 382,367 379,367 378,366 " fill="none" stroke="black" />
<polyline points="208,365 209,365 211,367 211,379 212,380 212,384 209,387 208,387 208,388 209,387 209,388 208,387 " fill="none" stroke="black" />
<polyline points="383,366 384,367 385,368 385,372 384,373 384,374 383,375 383,378 " fill="none" stroke="black" />
<polyline points="375,370 376,370 375,371 375,370 376,371 376,370 " fill="none" stroke="black" />
<polyline points="375,371 376,371 " fill="none" stroke="black" />
<polyline points="375,371 374,372 374,373 373,374 373,376 372,377 367,377 366,376 366,375 365,374 362,374 361,373 358,373 357,372 353,372 352,373 350,373 " fill="none" stroke="black" />
<polyline points="63,372 62,373 62,378 61,379 61,380 59,382 58,382 56,384 56,385 52,389 50,389 49,390 48,390 47,391 47,392 46,393 45,393 42,396 41,396 40,397 40,398 39,399 39,400 38,401 38,403 37,404 37,405 34,408 34,410 32,412 32,413 31,414 31,415 30,416 30,417 29,418 29,423 30,424 30,426 34,430 39,430 41,428 42,428 44,426 44,425 46,423 47,423 48,422 49,422 50,421 51,421 52,420 53,420 54,419 56,419 57,418 62,418 63,417 67,417 68,418 69,417 75,417 76,418 77,418 78,419 79,419 80,420 81,420 82,421 84,421 85,422 86,422 89,425 89,426 90,427 90,428 91,429 92,429 91,430 91,429 92,430 92,429 " fill="none" stroke="black" />
<polyline points="69,373 70,374 70,373 " fill="none" stroke="black" />
<polyline points="70,374 70,375 70,378 69,379 69,381 68,382 68,386 67,387 67,390 66,391 66,392 67,393 67,397 " fill="none" stroke="black" />
<polyline points="362,374 362,375 363,374 " fill="none" stroke="black" />
<polyline points="362,375 362,376 361,377 361,378 360,379 356,379 349,386 347,386 346,385 345,385 344,384 344,385 345,385 " fill="none" stroke="black" />
<polyline points="371,377 372,378 372,377 " fill="none" stroke="black" />
<polyline points="372,378 373,379 373,382 374,383 374,386 373,387 373,388 371,390 371,392 372,393 372,395 373,396 373,413 374,414 374,416 " fill="none" stroke="black" />
<polyline points="344,385 343,386 343,388 342,389 341,389 341,390 342,389 342,390 341,389 " fill="none" stroke="black" />
<polyline points="208,388 209,388 208,389 208,388 209,389 209,388 " fill="none" stroke="black" />
<polyline points="208,389 209,389 208,390 208,389 209,390 209,389 " fill="none" stroke="black" />
<polyline points="208,390 209,390 210,391 210,392 212,394 212,401 211,402 211,407 212,408 212,414 211,415 211,416 210,417 211,418 211,423 210,424 210,429 209,430 208,430 206,432 205,432 204,433 204,437 202,439 202,443 201,444 201,446 200,447 200,449 199,450 196,450 191,445 191,441 190,440 190,438 189,437 189,435 188,434 188,433 187,432 187,431 186,430 186,429 185,428 185,425 184,424 184,423 178,417 177,417 175,415 168,415 167,416 163,416 162,415 156,415 154,413 151,413 150,412 " fill="none" stroke="black" />
<polyline points="341,390 342,390 341,391 341,390 342,391 342,390 " fill="none" stroke="black" />
<polyline points="341,391 342,391 341,392 341,391 342,392 342,391 " fill="none" stroke="black" />
<polyline points="341,392 342,392 341,393 341,392 342,393 342,392 " fill="none" stroke="black" />
<polyline points="341,393 342,393 343,394 343,398 344,399 " fill="none" stroke="black" />
<polyline points="68,418 68,419 68,427 67,428 67,431 66,432 66,437 65,438 66,439 66,443 67,444 67,445 68,446 68,449 69,450 69,462 68,463 68,464 67,465 67,471 66,472 66,473 65,474 65,478 64,479 64,480 63,481 63,482 62,483 62,484 60,486 60,487 59,488 58,488 58,489 59,488 59,489 58,488 " fill="none" stroke="black" />
<polyline points="91,430 92,430 91,431 91,430 92,431 92,430 " fill="none" stroke="black" />
<polyline points="91,431 92,431 91,432 91,431 92,432 92,431 " fill="none" stroke="black" />
<polyline points="91,432 92,432 93,433 93,434 94,435 94,437 97,440 97,442 98,443 98,444 100,446 100,447 101,448 101,451 102,452 102,456 103,457 103,461 104,462 104,466 108,470 109,470 112,473 113,473 115,475 116,475 115,476 115,475 116,476 116,475 " fill="none" stroke="black" />
<polyline points="211,438 211,439 209,441 208,441 208,442 209,441 209,442 208,441 " fill="none" stroke="black" />
<polyline points="174,441 175,441 174,442 174,441 175,442 175,441 " fill="none" stroke="black" />
<polyline points="191,441 192,441 191,442 192,442 191,441 " fill="none" stroke="black" />
<polyline points="192,441 192,442 191,443 192,443 191,442 " fill="none" stroke="black" />
<polyline points="174,442 175,442 177,444 179,444 182,447 183,447 185,449 187,449 188,448 189,448 191,446 191,445 192,444 191,443 " fill="none" stroke="black" />
<polyline points="192,442 192,443 191,444 192,444 192,443 " fill="none" stroke="black" />
<polyline points="208,442 209,442 208,443 208,442 209,443 209,442 " fill="none" stroke="black" />
<polyline points="208,443 209,443 208,444 208,443 209,444 209,443 " fill="none" stroke="black" />
<polyline points="191,444 192,445 192,444 " fill="none" stroke="black" />
<polyline points="208,444 209,444 " fill="none" stroke="black" />
<polyline points="208,444 207,445 207,447 206,448 206,450 203,453 202,453 201,452 200,452 198,450 " fill="none" stroke="black" />
<polyline points="191,445 192,445 191,446 192,446 192,445 " fill="none" stroke="black" />
<polyline points="120,450 120,451 124,455 125,455 124,456 124,455 125,456 125,455 " fill="none" stroke="black" />
<polyline points="199,450 199,451 " fill="none" stroke="black" />
<polyline points="200,452 199,453 194,458 194,459 192,461 191,461 189,463 189,464 178,475 178,476 175,479 174,479 174,480 175,479 175,480 174,479 " fill="none" stroke="black" />
<polyline points="124,456 125,456 127,458 127,459 128,460 129,460 " fill="none" stroke="black" />
<polyline points="115,476 116,476 119,479 121,479 123,481 125,481 128,484 129,484 134,489 138,489 139,490 142,490 143,491 148,491 149,492 150,492 149,493 149,492 150,493 150,492 " fill="none" stroke="black" />
<polyline points="174,480 175,480 " fill="none" stroke="black" />
<polyline points="174,480 173,481 163,491 162,491 161,492 161,493 160,494 157,494 156,495 155,494 151,494 150,493 149,493 " fill="none" stroke="black" />
<polyline points="58,489 59,489 " fill="none" stroke="black" />
<polyline points="58,489 57,490 55,492 55,494 54,495 54,496 52,498 52,499 51,500 51,501 48,504 47,504 45,506 " fill="none" stroke="black" />
</svg>