<svg viewBox="0 0 101 129" xmlns="http://www.w3.org/2000/svg">
<line x1="101" y1="13" x2="100" y2="13" stroke="black" />
<line x1="100" y1="13" x2="99" y2="14" stroke="black" />
<line x1="99" y1="14" x2="97" y2="14" stroke="black" />
<line x1="97" y1="14" x2="92" y2="19" stroke="black" />
<line x1="92" y1="19" x2="92" y2="22" stroke="black" />
<line x1="92" y1="22" x2="88" y2="26" stroke="black" />
<line x1="88" y1="26" x2="88" y2="27" stroke="black" />
<line x1="88" y1="27" x2="87" y2="28" stroke="black" />
<line x1="87" y1="28" x2="87" y2="33" stroke="black" />
<line x1="87" y1="33" x2="86" y2="34" stroke="black" />
<line x1="86" y1="34" x2="86" y2="43" stroke="black" />
<line x1="86" y1="43" x2="85" y2="44" stroke="black" />
<line x1="85" y1="44" x2="85" y2="48" stroke="black" />
<line x1="85" y1="48" x2="84" y2="49" stroke="black" />
<line x1="84" y1="49" x2="84" y2="52" stroke="black" />
<line x1="84" y1="52" x2="85" y2="53" stroke="black" />
<line x1="85" y1="53" x2="85" y2="55" stroke="black" />
<line x1="85" y1="55" x2="86" y2="56" stroke="black" />
<line x1="86" y1="56" x2="86" y2="58" stroke="black" />
<line x1="86" y1="58" x2="87" y2="59" stroke="black" />
<line x1="87" y1="59" x2="87" y2="62" stroke="black" />
<line x1="87" y1="62" x2="88" y2="63" stroke="black" />
<line x1="88" y1="63" x2="88" y2="65" stroke="black" />
<line x1="88" y1="65" x2="89" y2="66" stroke="black" />
<line x1="89" y1="66" x2="89" y2="71" stroke="black" />
<line x1="89" y1="71" x2="90" y2="72" stroke="black" />
<line x1="90" y1="72" x2="90" y2="78" stroke="black" />
<line x1="90" y1="78" x2="88" y2="80" stroke="black" />
<line x1="88" y1="80" x2="88" y2="81" stroke="black" />
<line x1="88" y1="81" x2="86" y2="83" stroke="black" />
<line x1="86" y1="83" x2="85" y2="83" stroke="black" />
<line x1="85" y1="83" x2="84" y2="84" stroke="black" />
<line x1="84" y1="84" x2="82" y2="84" stroke="black" />
<line x1="82" y1="84" x2="81" y2="85" stroke="black" />
<line x1="81" y1="85" x2="77" y2="85" stroke="black" />
<line x1="77" y1="85" x2="76" y2="84" stroke="black" />
<line x1="76" y1="84" x2="68" y2="84" stroke="black" />
<line x1="68" y1="84" x2="67" y2="85" stroke="black" />
<line x1="67" y1="85" x2="62" y2="85" stroke="black" />
<line x1="62" y1="85" x2="61" y2="86" stroke="black" />
<line x1="61" y1="86" x2="55" y2="86" stroke="black" />
<line x1="55" y1="86" x2="54" y2="87" stroke="black" />
<line x1="54" y1="87" x2="53" y2="87" stroke="black" />
<line x1="53" y1="87" x2="52" y2="88" stroke="black" />
<line x1="52" y1="88" x2="51" y2="88" stroke="black" />
<line x1="51" y1="88" x2="48" y2="91" stroke="black" />
<line x1="48" y1="91" x2="47" y2="91" stroke="black" />
<line x1="47" y1="91" x2="44" y2="94" stroke="black" />
<line x1="44" y1="94" x2="43" y2="94" stroke="black" />
<line x1="43" y1="94" x2="41" y2="96" stroke="black" />
<line x1="41" y1="96" x2="40" y2="96" stroke="black" />
<line x1="40" y1="96" x2="37" y2="99" stroke="black" />
<line x1="37" y1="99" x2="36" y2="99" stroke="black" />
<line x1="36" y1="99" x2="34" y2="101" stroke="black" />
<line x1="34" y1="101" x2="27" y2="101" stroke="black" />
<line x1="27" y1="101" x2="26" y2="100" stroke="black" />
<line x1="26" y1="100" x2="24" y2="100" stroke="black" />
<line x1="24" y1="100" x2="22" y2="98" stroke="black" />
<line x1="22" y1="98" x2="15" y2="98" stroke="black" />
<line x1="15" y1="98" x2="14" y2="99" stroke="black" />
<line x1="14" y1="99" x2="13" y2="99" stroke="black" />
<line x1="13" y1="99" x2="12" y2="100" stroke="black" />
<line x1="12" y1="100" x2="11" y2="100" stroke="black" />
<line x1="11" y1="100" x2="10" y2="101" stroke="black" />
<line x1="10" y1="101" x2="9" y2="101" stroke="black" />
<line x1="9" y1="101" x2="8" y2="102" stroke="black" />
<line x1="8" y1="102" x2="7" y2="102" stroke="black" />
<line x1="7" y1="102" x2="6" y2="103" stroke="black" />
<line x1="6" y1="103" x2="4" y2="103" stroke="black" />
<line x1="4" y1="103" x2="3" y2="104" stroke="black" />
<line x1="3" y1="104" x2="1" y2="104" stroke="black" />
</svg>