<svg viewBox="0 0 101 129" xmlns="http://www.w3.org/2000/svg">
<polyline points="101,13 100,13 99,14 97,14 92,19 92,22 88,26 88,27 87,28 87,33 86,34 86,43 85,44 85,48 84,49 84,52 85,53 85,55 86,56 86,58 87,59 87,62 88,63 88,65 89,66 89,71 90,72 90,78 88,80 88,81 86,83 85,83 84,84 82,84 81,85 77,85 76,84 68,84 67,85 62,85 61,86 55,86 54,87 53,87 52,88 51,88 48,91 47,91 44,94 43,94 41,96 40,96 37,99 36,99 34,101 27,101 26,100 24,100 22,98 15,98 14,99 13,99 12,100 11,100 10,101 9,101 8,102 7,102 6,103 4,103 3,104 1,104 " fill="none" stroke="black" />
</svg>